<svg width="203" height="191" viewBox="0 0 203 191" fill="none" xmlns="http://www.w3.org/2000/svg">
<path d="M99.7902 135.925C99.9933 136.184 100.253 136.394 100.549 136.538C100.845 136.683 101.17 136.757 101.5 136.757C101.83 136.757 102.155 136.683 102.451 136.538C102.747 136.394 103.007 136.184 103.21 135.925L133.605 97.4805C134.718 96.0697 133.714 93.9807 131.896 93.9807H111.786V2.17045C111.786 0.976705 110.809 0 109.615 0H93.3311C92.137 0 91.16 0.976705 91.16 2.17045V93.9535H71.1043C69.286 93.9535 68.2818 96.0426 69.3945 97.4534L99.7902 135.925ZM200.829 126.429H184.545C183.351 126.429 182.374 127.406 182.374 128.599V170.381H20.6257V128.599C20.6257 127.406 19.6487 126.429 18.4545 126.429H2.17112C0.977005 126.429 0 127.406 0 128.599V182.318C0 187.12 3.88088 191 8.68449 191H194.316C199.119 191 203 187.12 203 182.318V128.599C203 127.406 202.023 126.429 200.829 126.429Z" fill="white"/>
</svg>
