<svg width="100" height="100" viewBox="0 0 100 100" fill="none" xmlns="http://www.w3.org/2000/svg">
<g clip-path="url(#clip0_444_8)">
<path d="M99.9999 50.3064C99.9999 22.5189 77.6124 -0.00610352 49.9999 -0.00610352C22.3749 0.000146485 -0.0125732 22.5189 -0.0125732 50.3127C-0.0125732 75.4189 18.2749 96.2314 42.1749 100.006V64.8502H29.4874V50.3127H42.1874V39.2189C42.1874 26.6126 49.6562 19.6501 61.0749 19.6501C66.5499 19.6501 72.2687 20.6314 72.2687 20.6314V33.0064H65.9624C59.7562 33.0064 57.8187 36.8876 57.8187 40.8689V50.3064H71.6812L69.4687 64.8439H57.8124V100C81.7124 96.2251 99.9999 75.4126 99.9999 50.3064Z" fill="white"/>
</g>
<defs>
<clipPath id="clip0_444_8">
<rect width="100" height="100" fill="white"/>
</clipPath>
</defs>
</svg>
