<svg width="84" height="55" viewBox="0 0 84 55" fill="none" xmlns="http://www.w3.org/2000/svg">
<path fill-rule="evenodd" clip-rule="evenodd" d="M41.0542 0.0921875C41.4542 -0.0307292 41.8792 -0.0307292 42.2792 0.0921875L69.3625 8.42552C69.7884 8.55654 70.1611 8.82068 70.4259 9.17916C70.6906 9.53764 70.8334 9.97156 70.8333 10.4172V12.5005H72.9167C75.6793 12.5005 78.3289 13.598 80.2824 15.5515C82.2359 17.505 83.3333 20.1545 83.3333 22.9172V31.2505C83.3333 34.0132 82.2359 36.6627 80.2824 38.6162C78.3289 40.5697 75.6793 41.6672 72.9167 41.6672H67.8C65.4063 45.3484 61.7954 48.0716 57.5979 49.3609L42.2792 54.0755C41.88 54.1982 41.4533 54.1982 41.0542 54.0755L25.7354 49.3609C21.538 48.0716 17.927 45.3484 15.5333 41.6672H10.4167C7.654 41.6672 5.00448 40.5697 3.05097 38.6162C1.09747 36.6627 0 34.0132 0 31.2505V22.9172C0 20.1545 1.09747 17.505 3.05097 15.5515C5.00448 13.598 7.654 12.5005 10.4167 12.5005H12.5V10.4172C12.4999 9.97156 12.6427 9.53764 12.9075 9.17916C13.1722 8.82068 13.5449 8.55654 13.9708 8.42552L41.0542 0.0921875ZM12.5 16.6672H10.4167C8.75906 16.6672 7.16935 17.3257 5.99725 18.4978C4.82515 19.6699 4.16667 21.2596 4.16667 22.9172V31.2505C4.16667 32.9081 4.82515 34.4978 5.99725 35.6699C7.16935 36.842 8.75906 37.5005 10.4167 37.5005H13.5042C12.838 35.5495 12.4987 33.5018 12.5 31.4401V16.6672ZM70.8333 31.4401V16.6672H72.9167C74.5743 16.6672 76.164 17.3257 77.3361 18.4978C78.5082 19.6699 79.1667 21.2596 79.1667 22.9172V31.2505C79.1667 32.9081 78.5082 34.4978 77.3361 35.6699C76.164 36.842 74.5743 37.5005 72.9167 37.5005H69.8292C70.4954 35.5495 70.8346 33.5018 70.8333 31.4401ZM16.6667 11.9589V31.4422C16.6668 34.5606 17.6666 37.5969 19.5193 40.1054C21.3719 42.6139 23.9799 44.4624 26.9604 45.3797L41.6667 49.9068L56.3729 45.3818C59.3538 44.4644 61.962 42.6156 63.8147 40.1067C65.6674 37.5978 66.667 34.561 66.6667 31.4422V11.9568L41.6667 4.26302L16.6667 11.9568V11.9589ZM43.75 10.4172V43.7505H39.5833V10.4172H43.75ZM52.0833 31.2505C52.0833 30.698 52.3028 30.1681 52.6935 29.7774C53.0842 29.3867 53.6141 29.1672 54.1667 29.1672C54.7192 29.1672 55.2491 29.3867 55.6398 29.7774C56.0305 30.1681 56.25 30.698 56.25 31.2505C56.25 31.8031 56.0305 32.333 55.6398 32.7237C55.2491 33.1144 54.7192 33.3339 54.1667 33.3339C53.6141 33.3339 53.0842 33.1144 52.6935 32.7237C52.3028 32.333 52.0833 31.8031 52.0833 31.2505ZM54.1667 25.0005C52.5091 25.0005 50.9194 25.659 49.7473 26.8311C48.5751 28.0032 47.9167 29.5929 47.9167 31.2505C47.9167 32.9081 48.5751 34.4978 49.7473 35.6699C50.9194 36.842 52.5091 37.5005 54.1667 37.5005C55.8243 37.5005 57.414 36.842 58.5861 35.6699C59.7582 34.4978 60.4167 32.9081 60.4167 31.2505C60.4167 29.5929 59.7582 28.0032 58.5861 26.8311C57.414 25.659 55.8243 25.0005 54.1667 25.0005Z" fill="black"/>
</svg>
