<svg width="79" height="84" viewBox="0 0 79 84" fill="none" xmlns="http://www.w3.org/2000/svg">
<path d="M34.4584 56.25L28.5417 50.375L34.4584 44.4583L40.3334 50.375L46.2084 44.4583L40.3334 38.5833L46.2084 32.7083L52.125 38.5833L58 32.7083L46.2084 20.9167L16.75 50.375L28.5417 62.1667L34.4584 56.25V56.25ZM0.833374 72.1667L13.8334 59.2083L5.00004 50.375L46.2084 9.12501L55.0834 18L60.9167 12.0833L55.0834 6.16667L60.9167 0.291672L78.625 18L72.75 23.8333L66.8334 18L60.9167 23.8333L69.7917 32.7083L28.5417 73.9167L19.7084 65.0833L0.833374 84V72.1667V72.1667Z" fill="black"/>
</svg>
