<svg width="64" height="64" viewBox="0 0 64 64" fill="none" xmlns="http://www.w3.org/2000/svg">
<path d="M22 60.3V46.5L11.7 54.1C14.6 56.8 18.1 58.9 22 60.3" fill="#2A5F9E"/>
<path d="M42 60.3C45.9 58.9 49.4 56.8 52.3 54.1L42 46.4V60.3Z" fill="#2A5F9E"/>
<path d="M3.70001 42C4.00001 43 4.40001 43.9 4.90001 44.9L8.80001 42H3.70001Z" fill="#2A5F9E"/>
<path d="M55.2 42L59.1 44.9C59.5 44 59.9 43 60.3 42H55.2Z" fill="#2A5F9E"/>
<path d="M23.5 38H2.59998C2.89998 39.4 3.29998 40.7 3.69998 42H8.79998L4.89998 44.9C5.69998 46.6 6.59998 48.1 7.69998 49.6L18 42H22V44L10.3 52.6L11.7 54L22 46.5V60.3C23.3 60.8 24.6 61.1 26 61.4V38H23.5Z" fill="white"/>
<path d="M61.4 38H38V61.4C39.4 61.1 40.7 60.7 42 60.3V46.5L52.3 54C53.7 52.7 54.9 51.3 56.1 49.8L45.4 42H52.2L58.3 46.5C58.6 46 58.9 45.4 59.1 44.9L55.2 42H60.3C60.7 40.7 61.1 39.4 61.4 38" fill="white"/>
<path d="M7.70001 49.6C8.50001 50.7 9.30001 51.7 10.2 52.7L22 44.1V42.1H18L7.70001 49.6Z" fill="#ED4C5C"/>
<path d="M45.5 42L56.2 49.8C56.6 49.3 56.9 48.8 57.3 48.3C57.4 48.2 57.4 48.1 57.5 48.1C57.8 47.6 58.2 47 58.5 46.5L52.2 42H45.5Z" fill="#ED4C5C"/>
<path d="M42 3.69995V17.5L52.3 9.89995C49.4 7.19995 45.9 5.09995 42 3.69995Z" fill="#2A5F9E"/>
<path d="M22 3.69995C18.1 5.09995 14.6 7.19995 11.7 9.89995L22 17.6V3.69995Z" fill="#2A5F9E"/>
<path d="M60.3 22C60 21 59.6 20.1 59.1 19.1L55.2 22H60.3" fill="#2A5F9E"/>
<path d="M8.80001 22L4.90001 19.1C4.50001 20.1 4.10001 21 3.70001 22H8.80001Z" fill="#2A5F9E"/>
<path d="M40.5 26H61.3C61 24.6 60.6 23.3 60.2 22H55.1L59 19.1C58.2 17.4 57.3 15.9 56.2 14.4L46 22H42V20L53.7 11.4L52.3 9.99998L42 17.5V3.69998C40.7 3.19998 39.4 2.89998 38 2.59998V26H40.5Z" fill="white"/>
<path d="M2.59998 26H26V2.59998C24.6 2.89998 23.3 3.29998 22 3.69998V17.5L11.7 9.99998C10.3 11.3 9.09998 12.7 7.89998 14.2L18.6 22H11.8L5.69998 17.5C5.39998 18 5.09998 18.6 4.89998 19.1L8.79998 22H3.69998C3.29998 23.3 2.89998 24.6 2.59998 26Z" fill="white"/>
<path d="M56.3 14.4C55.5 13.3 54.7 12.3 53.8 11.3L42 19.9V21.9H46L56.3 14.4" fill="#ED4C5C"/>
<path d="M18.5 22L7.89998 14.2C7.49998 14.7 7.19998 15.2 6.79998 15.7C6.69998 15.8 6.69998 15.9 6.59998 15.9C6.29998 16.4 5.89998 17 5.59998 17.5L11.7 22H18.5Z" fill="#ED4C5C"/>
<path d="M61.4 26H38V2.6C36.1 2.2 34.1 2 32 2C29.9 2 27.9 2.2 26 2.6V26H2.6C2.2 27.9 2 29.9 2 32C2 34.1 2.2 36.1 2.6 38H26V61.4C27.9 61.8 29.9 62 32 62C34.1 62 36.1 61.8 38 61.4V38H61.4C61.8 36.1 62 34.1 62 32C62 29.9 61.8 27.9 61.4 26Z" fill="#ED4C5C"/>
</svg>
